# xmcd
#
# Track frame offsets:
#	150
#	14350
#	30788
#	43175
#	60775
#	69488
#	87325
#	96950
#	122675
#	131763
#	149800
#	158650
#
# Disc length: 2354 seconds
#
# Revision: 1
# Processed by: cddbd v1.5.1PL0 Copyright (c) Steve Scherf et al.
# Submitted via: CDex 1.50Beta5
#
DISCID=9c09300c
DTITLE=さまざまなアーティスト - [B't X]BEST
DYEAR=1900
DGENRE=
TTITLE0=エックス復活!
TTITLE1=遥か〜SAILING FOR MY DREAM〜
TTITLE2=廃墟の戦士
TTITLE3=君を守りたい
TTITLE4=バトル・ギア、オン!
TTITLE5=信じる心
TTITLE6=光るメサイヤフィスト
TTITLE7=光を探して
TTITLE8=長老の樹
TTITLE9=いつか聞いた風の歌
TTITLE10=エックスに吹く風
TTITLE11=僕の生き方
EXTD=
EXTT0=
EXTT1=
EXTT2=
EXTT3=
EXTT4=
EXTT5=
EXTT6=
EXTT7=
EXTT8=
EXTT9=
EXTT10=
EXTT11=
PLAYORDER=
